<?xml version="1.0" encoding="utf-8"?>
<svg width="500" height="195" viewBox="0 0 500 195" version="1.1" baseProfile="full" xmlns="http://www.w3.org/2000/svg">
  <path d="M 10.161 26.302 C 17.251 5.033 46.83 2.441 57.462 22.186 C 59.251 25.509 60.576 29.426 60.576 33.544 C 67.896 34.154 87.01 33.666 95.445 33.666 C 123.249 33.666 151.054 33.666 178.859 33.666 C 258.081 33.666 337.303 33.666 416.83 33.666 C 421.859 33.666 426.562 34.612 431.241 35.437 C 436.168 36.307 441.641 38.031 446.055 40.408 C 450.959 43.049 455.971 45.401 460.332 48.969 C 478.323 63.689 489.532 83.495 488.276 107.372 C 488.016 112.296 487.613 117.518 486.041 122.235 C 484.694 126.276 483.623 130.476 481.583 134.265 C 468.893 157.832 451.41 170.812 424.866 175.496 C 419.641 176.418 413.757 176.81 408.525 175.887 C 396.685 173.797 388.116 162.212 388.74 150.362 C 388.948 146.395 390.38 142.761 392.233 139.321 C 394.645 134.841 399.175 131.234 403.786 129.257 C 411.826 125.812 419.1 129.041 426.746 122.785 C 442.051 110.263 436.087 88.567 421.275 83.63 C 416.608 82.074 411.765 81.921 406.876 81.663 C 380.126 80.255 357.129 84.278 333.451 97.027 C 317.475 105.63 302.137 116.929 283.903 120.147 C 277.274 121.316 266.374 120.269 260.955 115.835 C 260.014 115.066 259.062 114.309 258.122 113.539 C 257.256 112.831 254.396 109.175 253.786 109.008 C 253.32 108.881 252.606 109.746 252.247 109.985 C 249.074 112.101 245.728 113.772 241.927 114.443 C 228.454 116.821 216.545 109.253 212.286 96.478 C 205.289 75.485 228.187 54.919 250.342 66.849 C 260.889 72.528 265.26 86.285 261.578 97.333 C 260.5 100.566 258.721 103.403 256.583 106.016 C 256.228 106.45 255.133 107.161 255.239 107.799 C 255.369 108.578 256.715 109.459 257.206 110.059 C 262.6 116.651 271.411 119.229 279.739 118.791 C 297.98 117.831 315.437 104.745 331.131 96.295 C 350.452 85.891 372.1 79.587 394.174 79.587 C 402.868 79.587 420.138 79.124 427.003 84.741 C 430.469 87.577 432.989 90.362 435.125 94.328 C 436.796 97.433 437.469 101.07 437.469 104.563 C 437.469 115.778 430.156 124.701 419.785 128.158 C 412.811 130.483 405.973 127.022 397.411 135.584 C 396.252 136.743 394.983 137.999 394.199 139.455 C 392.682 142.273 391.333 144.904 390.767 148.114 C 388.778 159.387 396.743 172.019 408.28 174.055 C 414.137 175.088 420.627 174.584 426.466 173.554 C 460.597 167.531 488.562 137.121 486.688 101.51 C 486.314 94.416 484.629 87.811 482.401 81.126 C 478.431 69.215 469.717 58.89 460.173 51.082 C 458.516 49.726 456.7 48.197 454.8 47.174 C 452.971 46.189 451.267 44.971 449.438 43.986 C 447.937 43.178 446.335 42.56 444.834 41.751 C 436.137 37.068 423.326 35.376 413.288 35.376 C 295.738 35.376 178.432 35.376 60.821 35.376 L 60.576 35.376 C 60.167 36.44 60.2 38.833 60.015 39.883 C 58.452 48.737 51.29 56.25 42.904 59.045 C 22.829 65.737 3.473 46.365 10.161 26.302 Z" fill="#010101" opacity="1.000000"/>
</svg>