<?xml version="1.0" encoding="utf-8"?>
<svg width="500" height="195" viewBox="0 0 500 195" version="1.1" baseProfile="full" xmlns="http://www.w3.org/2000/svg">
  <path d="M 12.921 19.047 C 14.081 17.629 15.106 16.039 16.549 14.858 C 18.598 13.182 20.656 11.698 22.997 10.437 C 39.351 1.631 60.423 14.354 61.431 32.689 C 68.726 33.298 87.772 32.811 96.177 32.811 C 123.901 32.811 151.624 32.811 179.348 32.811 C 258.407 32.811 337.465 32.811 416.83 32.811 C 422.371 32.811 428.491 33.413 433.537 35.095 C 439.078 36.942 444.578 38.42 449.768 41.214 C 474.319 54.434 490.627 79.417 489.13 107.86 C 488.869 112.831 488.358 118.091 486.773 122.846 C 485.439 126.847 484.335 131.002 482.316 134.753 C 469.623 158.325 451.619 171.658 425.098 176.339 C 419.509 177.325 413.373 177.604 407.792 176.619 C 391.999 173.833 382.976 154.593 390.877 139.919 C 393.209 135.588 396.903 131.846 401.234 129.514 C 409.351 125.143 415.939 127.909 423.913 123.615 C 438.468 115.778 438.222 93.582 424.389 86.133 C 422.602 85.171 420.86 84.42 418.93 83.776 C 414.958 82.452 401.65 82.152 396.983 82.152 C 370.186 82.152 350.614 88.782 327.43 101.265 C 308.89 111.249 288.751 126.973 266.329 119.499 C 258.318 116.829 256.563 112.263 253.664 109.998 C 252.053 111.072 250.672 112.111 249.108 112.953 C 245.474 114.91 241.083 115.738 236.993 115.738 C 214.073 115.738 202.772 88.764 215.596 73.09 C 217.488 70.778 219.574 68.914 221.873 67.032 C 224.112 65.201 227.61 63.649 230.447 63.149 C 233.283 62.648 235.903 62.213 238.825 62.367 C 256.352 63.289 267.832 81.209 262.36 97.626 C 261.321 100.741 259.043 105.475 256.229 107.677 C 257.322 109.318 258.933 110.817 260.32 111.952 C 273.379 122.636 291.528 117.234 304.922 110.022 C 312.999 105.673 320.819 100.851 328.896 96.502 C 349.539 85.387 371.789 78.732 395.396 78.732 C 403.217 78.732 417.741 78.561 424.524 82.213 C 443.104 92.218 442.259 117.682 425.843 126.522 C 413.235 133.311 406.458 125.707 395.359 139.272 C 394.049 140.873 393.147 143.025 392.501 144.963 C 388.477 157.037 396.247 171.069 409.013 173.322 C 414.329 174.26 420.416 173.731 425.708 172.797 C 460.424 166.67 487.613 136.914 485.711 100.777 C 485.306 93.094 483.432 83.895 479.751 77.059 C 476.042 70.17 473.447 66.166 468.49 60.107 C 462.017 52.196 452.664 46.032 443.332 42.032 C 434.183 38.111 424.273 36.231 414.021 36.231 C 335.511 36.231 257.246 36.231 178.981 36.231 C 152.113 36.231 125.244 36.231 98.376 36.231 C 87.608 36.231 71.779 35.744 61.431 36.353 C 60.322 50.658 47.708 62.021 33.403 61.268 C 17.863 60.45 7.263 47.178 8.061 32.018 C 8.29 27.662 10.147 22.438 12.921 19.047 Z" fill="#010101" opacity="1.000000"/>
</svg>