<?xml version="1.0" encoding="utf-8"?>
<svg width="500" height="195" viewBox="0 0 500 195" version="1.1" baseProfile="full" xmlns="http://www.w3.org/2000/svg">
  <path d="M 6.229 32.75 C 7.643 5.874 43.291 -3.987 58.451 18.754 C 60.752 22.206 62.707 26.574 63.019 30.979 C 70.289 31.586 89.267 31.102 97.643 31.102 C 125.244 31.102 152.846 31.102 180.447 31.102 C 259.139 31.102 337.832 31.102 416.83 31.102 C 425.523 31.102 438.683 33.563 446.177 37.599 C 447.497 38.309 448.937 38.794 450.256 39.504 C 452.459 40.69 454.552 42.08 456.754 43.266 C 458.682 44.304 460.556 45.81 462.237 47.186 C 473.218 56.171 482.475 67.472 487.03 81.138 C 489.092 87.326 490.618 93.748 490.962 100.288 C 492.911 137.306 465.217 171.055 428.908 177.462 C 420.185 179.001 411.866 179.891 403.334 177.047 C 388.871 172.226 381.836 153.064 388.959 139.834 C 390.376 137.203 392.128 135.079 394.003 132.787 C 397.569 128.43 403.917 125.93 409.282 124.983 C 411.566 124.58 413.896 124.959 416.182 124.555 C 421.804 123.563 427.549 120.126 430.313 114.993 C 434.827 106.609 433.993 96.023 426.295 89.724 C 424.604 88.341 422.778 86.899 420.664 86.194 C 414.58 84.166 407.99 84.319 401.624 83.984 C 378.126 82.747 354.551 88.616 333.94 99.714 C 320.233 107.095 302.406 119.583 287.237 122.259 C 279.134 123.689 269.693 123.678 262.25 119.67 C 259.508 118.194 257.204 116.285 255.007 114.089 C 254.643 113.725 253.922 112.62 253.432 112.538 C 253.021 112.469 252.553 112.937 252.235 113.149 C 249.14 115.212 245.441 116.474 241.793 117.118 C 227.913 119.567 214.353 110.984 209.966 97.821 C 201.751 73.178 228.376 52.024 250.94 64.174 C 262.191 70.232 268.476 84.772 264.375 97.076 C 263.297 100.31 261.977 103.508 259.795 106.175 C 259.516 106.516 258.696 107.29 258.696 107.738 C 258.696 108.069 260.56 109.861 260.906 110.144 C 267.305 115.379 272.765 116.542 281.082 116.104 C 296.538 115.291 316.659 101.128 330.398 93.73 C 344.637 86.063 358.885 81.44 374.78 78.635 C 377.438 78.166 380.235 77.653 382.938 77.511 C 386.235 77.337 389.533 77.196 392.831 77.022 C 401.31 76.576 411.175 77.077 419.516 78.549 C 422.553 79.085 426.196 80.706 428.591 82.665 C 431.111 84.727 433.184 86.8 435.247 89.321 C 436.834 91.261 437.931 93.88 438.715 96.234 C 442.858 108.663 437.131 122.435 425.708 128.586 C 414.513 134.614 406.902 127.864 397.069 139.883 C 387.864 151.133 395.451 169.154 409.38 171.612 C 412.062 172.085 414.794 171.938 417.501 171.795 C 418.948 171.719 420.481 171.815 421.91 171.563 C 426.409 170.769 430.947 170.171 435.308 168.718 C 458.271 161.063 473.889 145.256 481.522 122.357 C 483.396 116.734 484.001 110.58 484.001 104.685 C 484.001 80.322 469.768 57.902 448.461 46.429 C 444.22 44.145 439.793 42.489 435.234 40.97 C 430.013 39.229 423.979 38.063 418.173 38.063 C 413.381 37.634 408.603 37.941 403.945 37.941 C 392.994 37.941 382.043 37.941 371.092 37.941 C 333.272 37.941 295.453 37.941 257.633 37.941 C 213.015 37.941 168.397 37.941 123.779 37.941 C 109.978 37.941 96.177 37.941 82.377 37.941 C 76.016 37.941 69.574 37.644 63.019 38.063 C 62.594 42.789 60.461 47.927 57.56 51.473 C 38.952 74.215 4.774 60.387 6.229 32.75 Z" fill="#000000" opacity="1.000000"/>
</svg>