<?xml version="1.0" encoding="utf-8"?>
<svg width="500" height="195" viewBox="0 0 500 195" version="1.1" baseProfile="full" xmlns="http://www.w3.org/2000/svg">
  <path d="M 52.917 13.848 C 55.156 15.679 57.183 18.107 58.557 20.659 C 60.28 23.858 62.134 27.626 62.134 31.67 C 62.134 31.772 62.134 31.873 62.134 32.036 C 181.537 32.036 300.713 32.158 420.166 32.158 C 423.045 32.878 429.934 32.96 434.961 34.636 C 439.056 36.001 443.387 37.023 447.229 39.092 C 449.587 40.361 451.964 41.594 454.321 42.864 C 466.056 49.183 476.218 61.156 482.446 72.722 C 487.552 82.205 490.112 93.255 490.112 103.997 C 490.112 143.098 457.754 175.864 418.884 177.91 C 415.021 178.113 410.573 178.509 406.836 177.263 C 404.695 176.55 402.632 175.873 400.635 174.797 C 391.274 169.757 385.42 158.396 387.292 147.783 C 387.901 144.333 389.175 141.306 390.82 138.25 C 394.386 131.627 401.862 127.146 409.082 125.872 C 411.218 125.495 413.435 125.865 415.54 125.493 C 418.859 124.907 422.537 123.919 425.208 121.733 C 438.152 111.142 436.466 93.684 422.815 86.333 C 416.876 83.135 402.749 83.062 395.813 83.062 C 374.582 83.062 353.438 88.235 334.753 98.296 C 322.876 104.691 301.352 118.774 288.94 120.964 C 280.384 122.474 270.842 123.276 262.854 118.975 C 259.886 117.377 257.566 115.347 255.188 112.969 C 254.813 112.594 254.055 111.441 253.552 111.357 C 252.996 111.265 251.807 112.354 251.343 112.664 C 248.971 114.245 245.854 115.463 243.042 115.959 C 233.165 117.702 225.709 115.428 218.079 109.185 C 213.184 105.18 210.787 98.627 209.729 92.632 C 208.836 87.569 209.744 81.695 212.183 77.166 C 222.599 57.82 246.517 57.11 257.813 70.916 C 265.49 80.299 266.861 91.919 261.047 102.715 C 260.216 104.259 258.989 106.471 257.446 107.72 C 258.493 109.29 260.094 110.669 261.414 111.748 C 273.808 121.889 292.427 115.735 304.932 109.001 C 313.004 104.655 320.821 99.835 328.894 95.488 C 349.721 84.274 371.749 77.935 395.569 77.935 C 399.103 77.935 402.663 77.871 406.189 78.057 C 407.671 78.135 409.106 78.467 410.583 78.545 C 416.146 78.838 421.057 79.471 426.025 82.146 C 444.212 91.939 442.988 118.272 425.293 127.8 C 414.102 133.826 406.578 126.843 396.387 139.299 C 387.469 150.199 393.254 167.3 407.068 171.904 C 411.652 173.432 419.336 172.976 424.097 172.136 C 448.849 167.768 466.418 155.134 478.296 133.074 C 480.254 129.438 481.336 125.417 482.629 121.538 C 483.998 117.432 484.515 112.81 484.741 108.513 C 486.435 76.332 465.963 50.382 436.121 40.435 C 430.727 38.637 424.446 37.285 418.457 37.285 C 418.095 37.172 417.879 37.163 417.358 37.163 C 412.569 36.734 407.793 37.041 403.137 37.041 C 392.192 37.041 381.246 37.041 370.3 37.041 C 332.499 37.041 294.698 37.041 256.897 37.041 C 212.26 37.041 167.623 37.041 122.986 37.041 C 109.192 37.041 95.398 37.041 81.604 37.041 C 75.247 37.041 68.807 36.744 62.256 37.163 L 62.256 37.285 C 61.812 42.283 59.759 47.533 56.677 51.299 C 38.929 72.991 5.685 59.581 7.08 33.074 C 8.295 9.985 34.931 -0.868 52.917 13.848 Z" fill="#000000" opacity="0.996078"/>
</svg>